<svg width="91" height="18" viewBox="0 0 91 18" fill="none" xmlns="http://www.w3.org/2000/svg">
<path d="M89.4742 17.2658C89.8258 17.412 90.5833 17.4861 90.5833 17.4861H0C0 17.4861 0.757405 17.412 1.10909 17.2658C1.46076 17.1196 1.78031 16.905 2.04936 16.6342C2.31841 16.3635 2.53168 16.0419 2.67694 15.6879C2.8222 15.334 2.89658 14.9547 2.89581 14.5718V11.6574V7.28588V2.91436C2.89505 2.53142 2.96943 2.15211 3.11469 1.79817C3.25994 1.44424 3.47323 1.12266 3.74228 0.851886C4.01133 0.58111 4.33086 0.366471 4.68254 0.220283C5.03422 0.0740954 5.41111 -0.000762321 5.79161 5.85264e-06H84.7916C85.1721 -0.000762321 85.549 0.0740954 85.9007 0.220283C86.2524 0.366471 86.5719 0.58111 86.841 0.851886C87.11 1.12266 87.3233 1.44424 87.4686 1.79817C87.6138 2.15211 87.6882 2.53142 87.6874 2.91436V7.28588V11.6574V14.5718C87.6867 14.9547 87.7611 15.334 87.9063 15.6879C88.0516 16.0419 88.2648 16.3635 88.5339 16.6342C88.8029 16.905 89.1225 17.1196 89.4742 17.2658Z" fill="#4F4F4F"/>
<path fill-rule="evenodd" clip-rule="evenodd" d="M78.1697 7.16698C78.061 7.05868 78 6.91179 78 6.75864C78 6.60548 78.061 6.45859 78.1697 6.35029C78.2783 6.24199 78.4256 6.18115 78.5793 6.18115C78.7329 6.18115 78.8802 6.24199 78.9888 6.35029L83.9039 11.2504C83.9577 11.304 84.0004 11.3677 84.0295 11.4377C84.0586 11.5078 84.0736 11.5829 84.0736 11.6587C84.0736 11.7346 84.0586 11.8097 84.0295 11.8797C84.0004 11.9498 83.9577 12.0134 83.9039 12.0671C83.8501 12.1207 83.7863 12.1632 83.716 12.1923C83.6457 12.2213 83.5704 12.2362 83.4943 12.2362C83.4183 12.2362 83.3429 12.2213 83.2727 12.1923C83.2024 12.1632 83.1385 12.1207 83.0847 12.0671L78.1697 7.16698Z" fill="white"/>
<path fill-rule="evenodd" clip-rule="evenodd" d="M83.0847 6.35005C83.1385 6.29643 83.2024 6.25389 83.2727 6.22487C83.3429 6.19585 83.4183 6.18091 83.4943 6.18091C83.5704 6.18091 83.6457 6.19585 83.716 6.22487C83.7863 6.25389 83.8501 6.29643 83.9039 6.35005C83.9577 6.40367 84.0004 6.46733 84.0295 6.5374C84.0586 6.60746 84.0736 6.68256 84.0736 6.75839C84.0736 6.83423 84.0586 6.90932 84.0295 6.97938C84.0004 7.04945 83.9577 7.11311 83.9039 7.16673L78.9888 12.0668C78.8802 12.1751 78.7329 12.236 78.5793 12.236C78.4256 12.236 78.2783 12.1751 78.1697 12.0668C78.061 11.9585 78 11.8116 78 11.6585C78 11.5053 78.061 11.3584 78.1697 11.2501L83.0847 6.35005Z" fill="white"/>
</svg>
