<svg width="21" height="20" viewBox="0 0 21 20" fill="none" xmlns="http://www.w3.org/2000/svg">
<path fill-rule="evenodd" clip-rule="evenodd" d="M1.50032 3.25714C1.14153 2.89944 0.939941 2.41431 0.939941 1.90845C0.939941 1.40259 1.14153 0.917451 1.50032 0.559755C1.85911 0.20206 2.34574 0.00110626 2.85315 0.00110626C3.36055 0.00110626 3.84713 0.20206 4.20592 0.559755L20.4397 16.7441C20.6174 16.9212 20.7583 17.1314 20.8544 17.3629C20.9506 17.5943 21.0001 17.8423 21.0001 18.0928C21.0001 18.3432 20.9506 18.5913 20.8544 18.8227C20.7583 19.0541 20.6174 19.2643 20.4397 19.4414C20.2621 19.6186 20.0512 19.7591 19.8191 19.8549C19.5869 19.9508 19.3381 20.0001 19.0869 20.0001C18.8357 20.0001 18.5869 19.9508 18.3548 19.8549C18.1227 19.7591 17.9118 19.6186 17.7341 19.4414L1.50032 3.25714Z" fill="black"/>
<path fill-rule="evenodd" clip-rule="evenodd" d="M17.7341 0.55855C17.9118 0.381437 18.1227 0.240943 18.3548 0.14509C18.5869 0.0492376 18.8357 -9.91821e-05 19.0869 -9.91821e-05C19.3381 -9.91821e-05 19.5869 0.0492376 19.8191 0.14509C20.0512 0.240943 20.2621 0.381437 20.4397 0.55855C20.6174 0.735663 20.7583 0.945926 20.8544 1.17733C20.9506 1.40874 21.0001 1.65677 21.0001 1.90724C21.0001 2.15772 20.9506 2.40574 20.8544 2.63715C20.7583 2.86856 20.6174 3.07882 20.4397 3.25593L4.20592 19.4402C3.84713 19.7979 3.36055 19.9989 2.85315 19.9989C2.34574 19.9989 1.85911 19.7979 1.50032 19.4402C1.14153 19.0825 0.939941 18.5974 0.939941 18.0916C0.939941 17.5857 1.14153 17.1006 1.50032 16.7429L17.7341 0.55855Z" fill="black"/>
</svg>
