<svg width="22" height="24" viewBox="0 0 22 24" fill="none" xmlns="http://www.w3.org/2000/svg">
<g clip-path="url(#clip0_239_19)">
<path d="M21.925 5.75073V5.74456C21.9236 5.72582 21.9217 5.70713 21.9192 5.6885L21.9181 5.68079C21.8981 5.53156 21.8395 5.38979 21.7481 5.26885L21.736 5.25342C21.7222 5.23575 21.7076 5.2186 21.6925 5.20199L21.6741 5.18296L21.6542 5.16239L16.6527 0.348161C16.5079 0.203865 16.3173 0.112254 16.1122 0.0884469H16.1101C16.0895 0.0860365 16.0688 0.0843211 16.0482 0.0833039H16.034L16.0051 0.0822754H0.974057C0.470765 0.0822754 0.0629883 0.481875 0.0629883 0.97559V23.0933C0.0629883 23.587 0.470765 23.9866 0.974057 23.9866H21.0155C21.5188 23.9866 21.9265 23.587 21.9265 23.0933V5.79959C21.9265 5.78329 21.9259 5.767 21.925 5.75073ZM16.9162 3.10525L18.7871 4.90628H16.9162V3.10525ZM20.1044 22.2H1.88408V1.8689H15.0935V5.8001C15.0935 6.29382 15.5018 6.69342 16.0046 6.69342H20.1034L20.1044 22.2ZM17.536 13.327H4.91222C4.40841 13.327 4.00116 13.7266 4.00116 14.2203C4.00116 14.714 4.40893 15.1136 4.91222 15.1136H17.5365C17.7783 15.1136 18.0101 15.0195 18.1811 14.852C18.3521 14.6845 18.4481 14.4573 18.4481 14.2203C18.4481 13.9834 18.3521 13.7562 18.1811 13.5887C18.0101 13.4211 17.7778 13.327 17.536 13.327ZM4.00063 10.4681C4.00063 10.9618 4.40841 11.3619 4.9117 11.3619H17.536C17.7778 11.3619 18.0098 11.2678 18.1808 11.1002C18.3518 10.9326 18.4478 10.7054 18.4478 10.4684C18.4478 10.2314 18.3518 10.0041 18.1808 9.83651C18.0098 9.66893 17.7778 9.57479 17.536 9.57479H4.91222C4.40841 9.57479 4.00063 9.97439 4.00063 10.4681ZM17.536 17.0782H4.91222C4.40841 17.0782 4.00116 17.4778 4.00116 17.9715C4.00116 18.4652 4.40893 18.8648 4.91222 18.8648H17.5365C17.7783 18.8648 18.0101 18.7707 18.1811 18.6032C18.3521 18.4357 18.4481 18.2085 18.4481 17.9715C18.4481 17.7346 18.3521 17.5074 18.1811 17.3399C18.0101 17.1723 17.7778 17.0782 17.536 17.0782Z" fill="#F5BA08"/>
</g>
<defs>
<clipPath id="clip0_239_19">
<rect width="22" height="24" fill="white"/>
</clipPath>
</defs>
</svg>
