<svg width="25" height="18" viewBox="0 0 25 18" fill="none" xmlns="http://www.w3.org/2000/svg">
<g clip-path="url(#clip0_239_8)">
<path d="M22.4539 17.9049H2.5461C1.17743 17.9049 0.0576172 16.8182 0.0576172 15.49V2.50988C0.0576172 1.18168 1.17743 0.0949707 2.5461 0.0949707H22.4539C23.8226 0.0949707 24.9424 1.18168 24.9424 2.50988V15.49C24.9424 16.8182 23.8226 17.9049 22.4539 17.9049ZM2.5461 1.30242C1.86176 1.30242 1.30186 1.84578 1.30186 2.50988V15.49C1.30186 16.1541 1.86176 16.6975 2.5461 16.6975H22.4539C23.1383 16.6975 23.6982 16.1541 23.6982 15.49V2.50988C23.6982 1.84578 23.1383 1.30242 22.4539 1.30242H2.5461Z" fill="#F5BA08"/>
<path d="M12.5 11.8526C11.8624 11.8526 11.2247 11.6111 10.7425 11.1432L0.881948 1.57414C0.633101 1.33265 0.633101 0.955324 0.881948 0.713833C1.1308 0.472342 1.51962 0.472342 1.76847 0.713833L11.6291 10.2829C12.1112 10.7508 12.9044 10.7508 13.3866 10.2829L23.1694 0.789299C23.4182 0.547808 23.8071 0.547808 24.0559 0.789299C24.3048 1.03079 24.3048 1.40812 24.0559 1.64961L14.2731 11.1432C13.7754 11.6262 13.1377 11.8526 12.5 11.8526Z" fill="#F5BA08"/>
</g>
<defs>
<clipPath id="clip0_239_8">
<rect width="25" height="18" fill="white"/>
</clipPath>
</defs>
</svg>
