<svg width="80" height="80" viewBox="0 0 80 80" fill="none" xmlns="http://www.w3.org/2000/svg">
<g clip-path="url(#clip0_334_90)">
<path d="M0 0L36.8 36.8H41.6L45.44 45.44L80 80V0H0Z" fill="#F5BA08"/>
<path d="M41.0561 34.88C36.4161 31.904 38.0801 28.672 38.0801 28.672C39.0401 26.464 38.5601 25.152 38.5601 25.152C38.1441 23.04 39.4881 24.416 39.4881 24.416C40.7361 25.888 40.1601 27.936 40.1601 27.936C39.3281 31.232 41.7921 32.608 43.0081 33.024" fill="black"/>
<path d="M36.7999 36.8C36.7679 36.832 37.9839 37.28 38.3359 36.928L42.7839 32.512C43.8079 31.744 44.7679 31.488 45.5039 31.552C42.8159 28.16 40.7999 23.808 46.0159 18.56C47.5199 17.088 49.2799 16.384 51.1039 16.32C51.2959 15.808 52.2239 13.952 54.8479 12.832C54.8479 12.832 56.3519 13.6 57.2159 17.984C58.5919 18.752 59.9039 19.776 61.0879 20.928C62.2399 22.08 63.2639 23.424 64.0319 24.832C68.4159 25.664 69.2159 27.168 69.2159 27.168C68.0639 29.792 66.2079 30.72 65.7279 30.912C65.6319 32.768 64.9599 34.496 63.4559 36C58.2079 41.248 53.8559 39.2 50.4639 36.512C50.5279 37.408 50.1439 38.688 48.8639 39.968L45.1199 43.68C44.7359 44.064 45.3119 45.408 45.3759 45.376L36.7999 36.8Z" fill="#2C2A2A"/>
</g>
<defs>
<clipPath id="clip0_334_90">
<rect width="80" height="80" fill="white"/>
</clipPath>
</defs>
</svg>
