<svg width="24" height="24" viewBox="0 0 24 24" fill="none" xmlns="http://www.w3.org/2000/svg">
<g clip-path="url(#clip0_239_11)">
<path d="M19.969 0H4.03153C1.81441 0 0.000488281 1.81392 0.000488281 4.03104V19.9685C0.000488281 22.1856 1.81441 23.9995 4.03153 23.9995H19.969C22.1861 23.9995 24 22.1856 24 19.9685V4.03104C24 1.81392 22.1861 0 19.969 0ZM9.00001 19.5H6.00001V9H9.00001V19.5ZM7.50001 7.5C6.67153 7.5 6.00001 6.82848 6.00001 6C6.00001 5.17152 6.67153 4.5 7.50001 4.5C8.32849 4.5 9.00001 5.17152 9.00001 6C9.00001 6.82848 8.32849 7.5 7.50001 7.5ZM19.5 19.5H16.5V13.5C16.5 12.6715 15.8285 12 15 12C14.1715 12 13.5 12.6715 13.5 13.5V19.5H10.5V9H13.5V10.8624C14.1187 10.0123 15.0643 9 16.1251 9C17.989 9 19.5 10.679 19.5 12.7502V19.5005V19.5Z" fill="#F5BA08"/>
</g>
<defs>
<clipPath id="clip0_239_11">
<rect width="24" height="24" fill="white"/>
</clipPath>
</defs>
</svg>
