<svg width="109" height="68" viewBox="0 0 109 68" fill="none" xmlns="http://www.w3.org/2000/svg">
<path d="M32.155 33.1279L29.2847 45.0046H34.989L32.2199 33.1279H32.155Z" fill="#F7981F"/>
<path d="M4.15747 46.0531V47.7816C4.15747 56.3751 13.4458 65.0671 24.896 65.0671H85.9698C97.42 65.0671 106.708 56.3725 106.708 47.7816V46.0531C106.708 38.0644 98.6683 28.0331 88.3314 27.1506C88.1004 20.0081 82.2534 14.2903 75.062 14.2903C72.2695 14.2903 69.6794 15.1572 67.541 16.6262C63.4405 7.49035 54.2871 1.1134 43.6233 1.1134C29.1444 1.1134 17.4088 12.8473 17.4088 27.3323C17.4088 27.5919 17.4399 27.8384 17.4477 28.0928C9.68014 30.343 4.15747 39.4374 4.15747 46.0531ZM37.1144 53.9821L35.6299 48.0775H28.5787L27.0241 53.9821H23.0093L29.8581 29.8888H34.7839L41.1266 53.9821H37.1144ZM60.5027 53.9821H56.0493L52.9454 35.8297H52.8779L49.8077 53.9821H45.3543L40.6958 29.8888H44.5783L47.7471 48.6148H47.8172L50.986 29.8888H55.0371L58.276 48.716H58.3434L61.4811 29.8888H65.2935L60.5027 53.9821ZM74.6026 54.4519C68.631 54.4519 67.2814 50.4731 67.2814 47.0965V46.5229H71.1276V47.1302C71.1276 50.0656 72.4096 51.5502 75.0749 51.5502C77.5041 51.5502 78.7161 49.8268 78.7161 48.036C78.7161 45.5055 77.4366 44.392 75.2774 43.7536L72.6432 42.84C69.1319 41.4903 67.6162 39.671 67.6162 36.2294C67.6162 31.8406 70.5852 29.4113 75.1061 29.4113C81.2802 29.4113 81.9212 33.2577 81.9212 35.7519V36.2943H78.075V35.7882C78.075 33.5925 77.0966 32.3103 74.7012 32.3103C73.0481 32.3103 71.4624 33.2239 71.4624 35.7882C71.4624 37.8464 72.5083 38.8897 75.0749 39.8682L77.6702 40.8155C81.0777 42.0276 82.5648 43.8885 82.5648 47.1925C82.5674 52.3288 79.4609 54.4519 74.6026 54.4519Z" fill="#F7981F"/>
<path d="M29.8581 29.8888L23.0093 53.9821H27.0241L28.5787 48.0775H35.6299L37.1144 53.9821H41.1292L34.7865 29.8888H29.8581ZM29.2846 45.0045L32.1523 33.1279H32.2172L34.9837 45.0045H29.2846Z" fill="white"/>
<path d="M58.3437 48.716H58.2736L55.0347 29.8888H50.9862L47.8174 48.6122H47.7473L44.5785 29.8888H40.696L45.3545 53.9821H49.8079L52.8755 35.8297H52.9456L56.0495 53.9821H60.5029L65.2911 29.8888H61.4813L58.3437 48.716Z" fill="white"/>
<path d="M77.6729 40.8233L75.0777 39.876C72.5136 38.8975 71.4651 37.8542 71.4651 35.796C71.4651 33.2317 73.0508 32.3182 74.704 32.3182C77.0994 32.3182 78.0778 33.6003 78.0778 35.796V36.3021H81.9239V35.7597C81.9239 33.2655 81.2829 29.4191 75.1088 29.4191C70.5879 29.4191 67.619 31.8484 67.619 36.2372C67.619 39.6788 69.1346 41.4982 72.6459 42.8478L75.2801 43.7614C77.4393 44.3998 78.7188 45.5159 78.7188 48.0438C78.7188 49.8321 77.5042 51.558 75.0777 51.558C72.4124 51.558 71.1303 50.0734 71.1303 47.138V46.5307H67.2842V47.1043C67.2842 50.4809 68.6363 54.4597 74.6053 54.4597C79.4636 54.4597 82.5675 52.3366 82.5675 47.2055C82.5675 43.8937 81.0805 42.0328 77.6729 40.8233Z" fill="white"/>
</svg>
