<svg width="60" height="60" viewBox="0 0 60 60" fill="none" xmlns="http://www.w3.org/2000/svg">
<g clip-path="url(#clip0_87_104)">
<mask id="mask0_87_104" style="mask-type:luminance" maskUnits="userSpaceOnUse" x="0" y="0" width="60" height="60">
<path d="M30.0001 59.3333C46.2004 59.3333 59.3334 46.2003 59.3334 30C59.3334 13.7996 46.2004 0.666626 30.0001 0.666626C13.7997 0.666626 0.666748 13.7996 0.666748 30C0.666748 46.2003 13.7997 59.3333 30.0001 59.3333Z" fill="white"/>
</mask>
<g mask="url(#mask0_87_104)">
<path d="M5.32349 0.666626V36.6666H18.4535L30.0002 16.6666H59.3335V0.666626H5.32349Z" fill="#DB4437"/>
<path d="M5.32349 0.666626V36.6666H18.4535L30.0002 16.6666H59.3335V0.666626H5.32349Z" fill="url(#paint0_linear_87_104)"/>
</g>
<mask id="mask1_87_104" style="mask-type:luminance" maskUnits="userSpaceOnUse" x="0" y="0" width="60" height="60">
<path d="M30.0001 59.3333C46.2004 59.3333 59.3334 46.2003 59.3334 30C59.3334 13.7996 46.2004 0.666626 30.0001 0.666626C13.7997 0.666626 0.666748 13.7996 0.666748 30C0.666748 46.2003 13.7997 59.3333 30.0001 59.3333Z" fill="white"/>
</mask>
<g mask="url(#mask1_87_104)">
<path d="M18.7701 36.5499L5.49338 13.7799L5.30005 14.1132L18.48 36.7132L18.7701 36.5499Z" fill="#3E2723" fill-opacity="0.15"/>
</g>
<mask id="mask2_87_104" style="mask-type:luminance" maskUnits="userSpaceOnUse" x="0" y="0" width="60" height="60">
<path d="M30.0001 59.3333C46.2004 59.3333 59.3334 46.2003 59.3334 30C59.3334 13.7996 46.2004 0.666626 30.0001 0.666626C13.7997 0.666626 0.666748 13.7996 0.666748 30C0.666748 46.2003 13.7997 59.3333 30.0001 59.3333Z" fill="white"/>
</mask>
<g mask="url(#mask2_87_104)">
<path d="M0.666748 59.3332H28.5901L41.5501 46.3732V36.6666H18.4534L0.666748 6.15991V59.3332Z" fill="#0F9D58"/>
<path d="M0.666748 59.3332H28.5901L41.5501 46.3732V36.6666H18.4534L0.666748 6.15991V59.3332Z" fill="url(#paint1_linear_87_104)"/>
</g>
<mask id="mask3_87_104" style="mask-type:luminance" maskUnits="userSpaceOnUse" x="0" y="0" width="60" height="60">
<path d="M30.0001 59.3333C46.2004 59.3333 59.3334 46.2003 59.3334 30C59.3334 13.7996 46.2004 0.666626 30.0001 0.666626C13.7997 0.666626 0.666748 13.7996 0.666748 30C0.666748 46.2003 13.7997 59.3333 30.0001 59.3333Z" fill="white"/>
</mask>
<g mask="url(#mask3_87_104)">
<path d="M41.2801 37.11L41.0035 36.95L28.2068 59.3333H28.5901L41.2901 37.12L41.2801 37.11Z" fill="#263238" fill-opacity="0.15"/>
</g>
<mask id="mask4_87_104" style="mask-type:luminance" maskUnits="userSpaceOnUse" x="0" y="0" width="60" height="60">
<path d="M30.0001 59.3333C46.2004 59.3333 59.3334 46.2003 59.3334 30C59.3334 13.7996 46.2004 0.666626 30.0001 0.666626C13.7997 0.666626 0.666748 13.7996 0.666748 30C0.666748 46.2003 13.7997 59.3333 30.0001 59.3333Z" fill="white"/>
</mask>
<g mask="url(#mask4_87_104)">
<mask id="mask5_87_104" style="mask-type:luminance" maskUnits="userSpaceOnUse" x="0" y="6" width="42" height="54">
<path d="M0.666748 59.3332H28.5901L41.5501 46.3732V36.6666H18.4534L0.666748 6.15991V59.3332Z" fill="white"/>
</mask>
<g mask="url(#mask5_87_104)">
<path d="M30.0001 16.6666L41.5501 36.6666L28.5901 59.3333H59.3334V16.6666H30.0001Z" fill="#FFCD40"/>
<path d="M30.0001 16.6666L41.5501 36.6666L28.5901 59.3333H59.3334V16.6666H30.0001Z" fill="url(#paint2_linear_87_104)"/>
</g>
</g>
<mask id="mask6_87_104" style="mask-type:luminance" maskUnits="userSpaceOnUse" x="0" y="0" width="60" height="60">
<path d="M30.0001 59.3333C46.2004 59.3333 59.3334 46.2003 59.3334 30C59.3334 13.7996 46.2004 0.666626 30.0001 0.666626C13.7997 0.666626 0.666748 13.7996 0.666748 30C0.666748 46.2003 13.7997 59.3333 30.0001 59.3333Z" fill="white"/>
</mask>
<g mask="url(#mask6_87_104)">
<path d="M30.0001 16.6666L41.5501 36.6666L28.5901 59.3333H59.3334V16.6666H30.0001Z" fill="#FFCD40"/>
<path d="M30.0001 16.6666L41.5501 36.6666L28.5901 59.3333H59.3334V16.6666H30.0001Z" fill="url(#paint3_linear_87_104)"/>
</g>
<mask id="mask7_87_104" style="mask-type:luminance" maskUnits="userSpaceOnUse" x="0" y="0" width="60" height="60">
<path d="M30.0001 59.3333C46.2004 59.3333 59.3334 46.2003 59.3334 30C59.3334 13.7996 46.2004 0.666626 30.0001 0.666626C13.7997 0.666626 0.666748 13.7996 0.666748 30C0.666748 46.2003 13.7997 59.3333 30.0001 59.3333Z" fill="white"/>
</mask>
<g mask="url(#mask7_87_104)">
<mask id="mask8_87_104" style="mask-type:luminance" maskUnits="userSpaceOnUse" x="28" y="16" width="32" height="44">
<path d="M30.0001 16.6666L41.5501 36.6666L28.5901 59.3333H59.3334V16.6666H30.0001Z" fill="white"/>
</mask>
<g mask="url(#mask8_87_104)">
<path d="M5.32349 0.666626V36.6666H18.4535L30.0002 16.6666H59.3335V0.666626H5.32349Z" fill="#DB4437"/>
<path d="M5.32349 0.666626V36.6666H18.4535L30.0002 16.6666H59.3335V0.666626H5.32349Z" fill="url(#paint4_linear_87_104)"/>
</g>
</g>
<mask id="mask9_87_104" style="mask-type:luminance" maskUnits="userSpaceOnUse" x="0" y="0" width="60" height="60">
<path d="M30.0001 59.3333C46.2004 59.3333 59.3334 46.2003 59.3334 30C59.3334 13.7996 46.2004 0.666626 30.0001 0.666626C13.7997 0.666626 0.666748 13.7996 0.666748 30C0.666748 46.2003 13.7997 59.3333 30.0001 59.3333Z" fill="white"/>
</mask>
<g mask="url(#mask9_87_104)">
<path d="M30 16.6666V23.65L56.1333 16.6666H30Z" fill="url(#paint5_radial_87_104)"/>
</g>
<mask id="mask10_87_104" style="mask-type:luminance" maskUnits="userSpaceOnUse" x="0" y="0" width="60" height="60">
<path d="M30.0001 59.3333C46.2004 59.3333 59.3334 46.2003 59.3334 30C59.3334 13.7996 46.2004 0.666626 30.0001 0.666626C13.7997 0.666626 0.666748 13.7996 0.666748 30C0.666748 46.2003 13.7997 59.3333 30.0001 59.3333Z" fill="white"/>
</mask>
<g mask="url(#mask10_87_104)">
<mask id="mask11_87_104" style="mask-type:luminance" maskUnits="userSpaceOnUse" x="5" y="0" width="55" height="37">
<path d="M5.32349 0.666626V14.1133L18.4535 36.6666L30.0002 16.6666H59.3335V0.666626H5.32349Z" fill="white"/>
</mask>
<g mask="url(#mask11_87_104)">
<path d="M0.666748 59.3332H28.5901L41.5501 46.3732V36.6666H18.4534L0.666748 6.15991V59.3332Z" fill="#0F9D58"/>
<path d="M0.666748 59.3332H28.5901L41.5501 46.3732V36.6666H18.4534L0.666748 6.15991V59.3332Z" fill="url(#paint6_linear_87_104)"/>
</g>
</g>
<mask id="mask12_87_104" style="mask-type:luminance" maskUnits="userSpaceOnUse" x="0" y="0" width="60" height="60">
<path d="M30.0001 59.3333C46.2004 59.3333 59.3334 46.2003 59.3334 30C59.3334 13.7996 46.2004 0.666626 30.0001 0.666626C13.7997 0.666626 0.666748 13.7996 0.666748 30C0.666748 46.2003 13.7997 59.3333 30.0001 59.3333Z" fill="white"/>
</mask>
<g mask="url(#mask12_87_104)">
<path d="M5.32349 14.1499L24.4068 33.2299L18.4535 36.6666L5.32349 14.1499Z" fill="url(#paint7_radial_87_104)"/>
</g>
<mask id="mask13_87_104" style="mask-type:luminance" maskUnits="userSpaceOnUse" x="0" y="0" width="60" height="60">
<path d="M30.0001 59.3333C46.2004 59.3333 59.3334 46.2003 59.3334 30C59.3334 13.7996 46.2004 0.666626 30.0001 0.666626C13.7997 0.666626 0.666748 13.7996 0.666748 30C0.666748 46.2003 13.7997 59.3333 30.0001 59.3333Z" fill="white"/>
</mask>
<g mask="url(#mask13_87_104)">
<path d="M28.6101 59.2966L35.5968 33.23L41.5501 36.6666L28.6101 59.2966Z" fill="url(#paint8_radial_87_104)"/>
</g>
<mask id="mask14_87_104" style="mask-type:luminance" maskUnits="userSpaceOnUse" x="0" y="0" width="60" height="60">
<path d="M30.0001 59.3333C46.2004 59.3333 59.3334 46.2003 59.3334 30C59.3334 13.7996 46.2004 0.666626 30.0001 0.666626C13.7997 0.666626 0.666748 13.7996 0.666748 30C0.666748 46.2003 13.7997 59.3333 30.0001 59.3333Z" fill="white"/>
</mask>
<g mask="url(#mask14_87_104)">
<path d="M30.0001 43.3333C37.3639 43.3333 43.3334 37.3638 43.3334 30C43.3334 22.6362 37.3639 16.6666 30.0001 16.6666C22.6363 16.6666 16.6667 22.6362 16.6667 30C16.6667 37.3638 22.6363 43.3333 30.0001 43.3333Z" fill="#F1F1F1"/>
<path d="M30.0002 40.6666C35.8912 40.6666 40.6668 35.891 40.6668 29.9999C40.6668 24.1089 35.8912 19.3333 30.0002 19.3333C24.1091 19.3333 19.3335 24.1089 19.3335 29.9999C19.3335 35.891 24.1091 40.6666 30.0002 40.6666Z" fill="#4285F4"/>
</g>
<mask id="mask15_87_104" style="mask-type:luminance" maskUnits="userSpaceOnUse" x="0" y="0" width="60" height="60">
<path d="M30.0001 59.3333C46.2004 59.3333 59.3334 46.2003 59.3334 30C59.3334 13.7996 46.2004 0.666626 30.0001 0.666626C13.7997 0.666626 0.666748 13.7996 0.666748 30C0.666748 46.2003 13.7997 59.3333 30.0001 59.3333Z" fill="white"/>
</mask>
<g mask="url(#mask15_87_104)">
<path d="M30.0001 16.3333C22.6367 16.3333 16.6667 22.3033 16.6667 29.6666V29.9999C16.6667 22.6366 22.6367 16.6666 30.0001 16.6666H59.3334V16.3333H30.0001Z" fill="#3E2723" fill-opacity="0.2"/>
<path d="M41.5334 36.6666C39.2267 40.6466 34.9301 43.3332 30.0001 43.3332C25.0667 43.3332 20.7701 40.6466 18.4634 36.6666H18.4501L0.666748 6.15991V6.49325L18.4534 36.9999H18.4667C20.7734 40.9799 25.0701 43.6666 30.0034 43.6666C34.9334 43.6666 39.2301 40.9832 41.5367 36.9999H41.5534V36.6666H41.5334Z" fill="white" fill-opacity="0.1"/>
<path opacity="0.1" d="M30.3334 16.6666C30.2767 16.6666 30.2234 16.6733 30.1667 16.6766C37.4534 16.7666 43.3334 22.6933 43.3334 30C43.3334 37.3066 37.4534 43.2333 30.1667 43.3233C30.2234 43.3233 30.2767 43.3333 30.3334 43.3333C37.6967 43.3333 43.6667 37.3633 43.6667 30C43.6667 22.6366 37.6967 16.6666 30.3334 16.6666Z" fill="#3E2723"/>
<path d="M41.6668 37.11C42.8001 35.15 43.4568 32.8833 43.4568 30.4566C43.4568 29.05 43.2368 27.6966 42.8334 26.4266C43.1501 27.5666 43.3334 28.7633 43.3334 30.0033C43.3334 32.43 42.6768 34.6966 41.5434 36.6566L41.5501 36.67L28.5901 59.3366H28.9768L41.6734 37.1233L41.6668 37.11Z" fill="white" fill-opacity="0.2"/>
</g>
<mask id="mask16_87_104" style="mask-type:luminance" maskUnits="userSpaceOnUse" x="0" y="0" width="60" height="60">
<path d="M30.0001 59.3333C46.2004 59.3333 59.3334 46.2003 59.3334 30C59.3334 13.7996 46.2004 0.666626 30.0001 0.666626C13.7997 0.666626 0.666748 13.7996 0.666748 30C0.666748 46.2003 13.7997 59.3333 30.0001 59.3333Z" fill="white"/>
</mask>
<g mask="url(#mask16_87_104)">
<path d="M30.0001 0.999959C46.1434 0.999959 59.2401 14.0433 59.3301 30.1666C59.3301 30.11 59.3334 30.0566 59.3334 30C59.3334 13.8 46.2001 0.666626 30.0001 0.666626C13.8001 0.666626 0.666748 13.8 0.666748 30C0.666748 30.0566 0.670081 30.11 0.670081 30.1666C0.760081 14.0433 13.8567 0.999959 30.0001 0.999959Z" fill="white" fill-opacity="0.2"/>
<path d="M30.0001 58.9999C46.1434 58.9999 59.2401 45.9566 59.3301 29.8333C59.3301 29.8899 59.3334 29.9433 59.3334 29.9999C59.3334 46.1999 46.2001 59.3333 30.0001 59.3333C13.8001 59.3333 0.666748 46.1999 0.666748 29.9999C0.666748 29.9433 0.670081 29.8899 0.670081 29.8333C0.760081 45.9566 13.8567 58.9999 30.0001 58.9999Z" fill="#3E2723" fill-opacity="0.15"/>
</g>
<path d="M30.0001 59.3333C46.2004 59.3333 59.3334 46.2003 59.3334 30C59.3334 13.7996 46.2004 0.666626 30.0001 0.666626C13.7997 0.666626 0.666748 13.7996 0.666748 30C0.666748 46.2003 13.7997 59.3333 30.0001 59.3333Z" fill="url(#paint9_radial_87_104)"/>
</g>
<defs>
<linearGradient id="paint0_linear_87_104" x1="7.77915" y1="23.007" x2="25.2792" y2="12.7846" gradientUnits="userSpaceOnUse">
<stop stop-color="#A52714" stop-opacity="0.6"/>
<stop offset="0.66" stop-color="#A52714" stop-opacity="0"/>
</linearGradient>
<linearGradient id="paint1_linear_87_104" x1="34.9567" y1="52.8332" x2="15.5127" y2="41.4432" gradientUnits="userSpaceOnUse">
<stop stop-color="#055524" stop-opacity="0.4"/>
<stop offset="0.33" stop-color="#055524" stop-opacity="0"/>
</linearGradient>
<linearGradient id="paint2_linear_87_104" x1="38.6201" y1="14.6013" x2="43.5168" y2="36.0433" gradientUnits="userSpaceOnUse">
<stop stop-color="#EA6100" stop-opacity="0.3"/>
<stop offset="0.66" stop-color="#EA6100" stop-opacity="0"/>
</linearGradient>
<linearGradient id="paint3_linear_87_104" x1="38.6201" y1="14.6013" x2="43.5168" y2="36.0433" gradientUnits="userSpaceOnUse">
<stop stop-color="#EA6100" stop-opacity="0.3"/>
<stop offset="0.66" stop-color="#EA6100" stop-opacity="0"/>
</linearGradient>
<linearGradient id="paint4_linear_87_104" x1="7.77915" y1="23.007" x2="25.2792" y2="12.7846" gradientUnits="userSpaceOnUse">
<stop stop-color="#A52714" stop-opacity="0.6"/>
<stop offset="0.66" stop-color="#A52714" stop-opacity="0"/>
</linearGradient>
<radialGradient id="paint5_radial_87_104" cx="0" cy="0" r="1" gradientUnits="userSpaceOnUse" gradientTransform="translate(28.7267 16.6493) scale(28.026 28.026)">
<stop stop-color="#3E2723" stop-opacity="0.2"/>
<stop offset="1" stop-color="#3E2723" stop-opacity="0"/>
</radialGradient>
<linearGradient id="paint6_linear_87_104" x1="34.9567" y1="52.8332" x2="15.5127" y2="41.4432" gradientUnits="userSpaceOnUse">
<stop stop-color="#055524" stop-opacity="0.4"/>
<stop offset="0.33" stop-color="#055524" stop-opacity="0"/>
</linearGradient>
<radialGradient id="paint7_radial_87_104" cx="0" cy="0" r="1" gradientUnits="userSpaceOnUse" gradientTransform="translate(5.29349 14.1732) scale(26.0147)">
<stop stop-color="#3E2723" stop-opacity="0.2"/>
<stop offset="1" stop-color="#3E2723" stop-opacity="0"/>
</radialGradient>
<radialGradient id="paint8_radial_87_104" cx="0" cy="0" r="1" gradientUnits="userSpaceOnUse" gradientTransform="translate(29.9468 30.046) scale(29.29 29.29)">
<stop stop-color="#263238" stop-opacity="0.2"/>
<stop offset="1" stop-color="#263238" stop-opacity="0"/>
</radialGradient>
<radialGradient id="paint9_radial_87_104" cx="0" cy="0" r="1" gradientUnits="userSpaceOnUse" gradientTransform="translate(9.42875 8.67129) scale(58.9167 58.9167)">
<stop stop-color="white" stop-opacity="0.1"/>
<stop offset="1" stop-color="white" stop-opacity="0"/>
</radialGradient>
<clipPath id="clip0_87_104">
<rect width="60" height="60" fill="white"/>
</clipPath>
</defs>
</svg>
