<svg width="78" height="82" viewBox="0 0 78 82" fill="none" xmlns="http://www.w3.org/2000/svg">
<g clip-path="url(#clip0_82_48)">
<path d="M1.9851 51.3112C0.969804 47.7674 0.462158 44.2237 0.462158 40.5112C0.462158 23.9737 10.9535 8.78618 26.5213 2.71118L28.5519 7.94243C15.1839 13.1737 6.04626 26.1674 6.04626 40.5112C6.04626 43.7174 6.38469 46.7549 7.23077 49.7924L1.9851 51.3112Z" fill="#69D3A7"/>
<path d="M72.3787 24.48C66.2869 12.8362 54.2727 5.57998 41.2431 5.57998C36.6743 5.57998 32.1055 6.42373 27.8751 8.27998L25.6753 3.04873C30.5825 1.02373 35.8282 0.0112305 41.2431 0.0112305C56.4725 0.0112305 70.3481 8.44873 77.4552 21.78L72.3787 24.48Z" fill="url(#paint0_linear_82_48)"/>
<path d="M29.0595 32.0737C32.2746 32.0737 34.9821 33.7612 36.3358 36.7987L36.505 36.9674L42.0891 35.1112L41.9199 34.7737C39.7201 29.5424 34.8129 26.3362 29.0595 26.3362C24.9984 26.3362 21.6141 27.6862 18.9066 30.3862C16.1992 33.0862 14.8455 36.4612 14.8455 40.3424C14.8455 44.2237 16.1992 47.5987 18.9066 50.2987C21.6141 52.9987 24.9984 54.3487 29.0595 54.3487C34.8129 54.3487 39.7201 51.1424 41.9199 45.9112L42.0891 45.5737L36.505 43.7174L36.3358 43.8862C35.1513 46.9237 32.4438 48.6112 29.0595 48.6112C26.6905 48.6112 24.8292 47.7674 23.3062 46.2487C21.7833 44.7299 20.9372 42.7049 20.9372 40.3424C20.9372 37.9799 21.7833 35.9549 23.3062 34.2674C24.8292 32.9174 26.6905 32.0737 29.0595 32.0737Z" fill="white"/>
<path d="M63.5795 27.1799L55.7956 47.0924L47.8425 27.1799H41.4124L52.5806 54.3487L44.4582 73.2487L50.0423 74.4299L69.5021 27.1799H63.5795Z" fill="white"/>
<path d="M45.4735 70.8862L44.1198 74.2612C43.7813 74.9362 43.2737 75.4424 42.5968 75.4424C42.0892 75.4424 41.5815 75.4424 41.2431 75.4424C24.9985 75.4424 10.6152 63.9674 7.06164 48.2737L1.47754 49.4549C3.50812 58.2299 8.41536 66.3299 15.5224 72.0674C22.7987 77.8049 31.7671 81.0112 41.0739 81.0112C41.5815 81.0112 42.0892 81.0112 42.766 81.0112C45.6427 80.8424 48.3501 79.1549 49.3654 76.4549L51.2268 72.0674L45.4735 70.8862Z" fill="url(#paint1_linear_82_48)"/>
</g>
<defs>
<linearGradient id="paint0_linear_82_48" x1="36.9575" y1="-2.61874" x2="67.774" y2="30.4088" gradientUnits="userSpaceOnUse">
<stop offset="0.0939" stop-color="#58D09E"/>
<stop offset="0.9883" stop-color="#58D09E" stop-opacity="0"/>
</linearGradient>
<linearGradient id="paint1_linear_82_48" x1="0.0305801" y1="58.9326" x2="59.0558" y2="74.6864" gradientUnits="userSpaceOnUse">
<stop stop-color="#58D09E"/>
<stop offset="1" stop-color="white"/>
</linearGradient>
<clipPath id="clip0_82_48">
<rect width="77" height="81" fill="white" transform="translate(0.462158 0.0112305)"/>
</clipPath>
</defs>
</svg>
