<svg width="32" height="48" viewBox="0 0 32 48" fill="none" xmlns="http://www.w3.org/2000/svg">
<g clip-path="url(#clip0_82_40)">
<path d="M8.26661 47.5877C12.5721 47.5877 16.0664 44.0927 16.0664 39.7864V31.985H8.26661C3.96111 31.985 0.466797 35.48 0.466797 39.7864C0.466797 44.0927 3.96111 47.5877 8.26661 47.5877Z" fill="#0ACF83"/>
<path d="M0.466797 24.1837C0.466797 19.8773 3.96111 16.3823 8.26661 16.3823H16.0664V31.9851H8.26661C3.96111 31.9851 0.466797 28.49 0.466797 24.1837Z" fill="#A259FF"/>
<path d="M0.466797 8.58091C0.466797 4.27455 3.96111 0.779541 8.26661 0.779541H16.0664V16.3823H8.26661C3.96111 16.3823 0.466797 12.8873 0.466797 8.58091Z" fill="#F24E1E"/>
<path d="M16.0664 0.779541H23.8662C28.1717 0.779541 31.666 4.27455 31.666 8.58091C31.666 12.8873 28.1717 16.3823 23.8662 16.3823H16.0664V0.779541Z" fill="#FF7262"/>
<path d="M31.666 24.1837C31.666 28.49 28.1717 31.9851 23.8662 31.9851C19.5607 31.9851 16.0664 28.49 16.0664 24.1837C16.0664 19.8773 19.5607 16.3823 23.8662 16.3823C28.1717 16.3823 31.666 19.8773 31.666 24.1837Z" fill="#1ABCFE"/>
</g>
<defs>
<clipPath id="clip0_82_40">
<rect width="31.2055" height="46.8082" fill="white" transform="translate(0.463623 0.779541)"/>
</clipPath>
</defs>
</svg>
