<svg width="150" height="93" viewBox="0 0 150 93" fill="none" xmlns="http://www.w3.org/2000/svg">
<g clip-path="url(#clip0_82_64)">
<path d="M74.304 92.5366C73.7975 92.5366 73.3246 92.4014 72.8854 92.1645L68.393 89.4919C67.7173 89.1196 68.0551 88.9843 68.2579 88.9167C69.1698 88.6123 69.3387 88.5444 70.2845 88.0034C70.3859 87.9355 70.5212 87.9695 70.6224 88.0371L74.0679 90.1008C74.2029 90.1684 74.3718 90.1684 74.4729 90.1008L87.9507 82.2856C88.0857 82.218 88.1535 82.0824 88.1535 81.9135V66.317C88.1535 66.1475 88.0857 66.0126 87.9507 65.9446L74.4729 58.1634C74.3379 58.0954 74.169 58.0954 74.0679 58.1634L60.5901 65.9446C60.4551 66.0123 60.3873 66.1815 60.3873 66.3167V81.9132C60.3873 82.0488 60.4551 82.2177 60.5901 82.2856L64.2721 84.4169C66.265 85.4318 67.5147 84.2477 67.5147 83.0636V67.67C67.5147 67.4671 67.6836 67.264 67.9201 67.264H69.6427C69.8455 67.264 70.0481 67.4332 70.0481 67.67V83.0636C70.0481 85.7362 68.5955 87.2927 66.0622 87.2927C65.2853 87.2927 64.6774 87.2927 62.9545 86.4467L59.4079 84.4169C58.5297 83.9096 57.9893 82.9621 57.9893 81.9472V66.3507C57.9893 65.3358 58.5297 64.3882 59.4079 63.8809L72.8854 56.0657C73.73 55.592 74.8786 55.592 75.7229 56.0657L89.2004 63.8809C90.0786 64.3882 90.6193 65.3358 90.6193 66.3507V81.9472C90.6193 82.9621 90.0786 83.9096 89.2004 84.4169L75.7229 92.2322C75.2837 92.4353 74.7769 92.5366 74.304 92.5366ZM78.4588 81.8119C72.5478 81.8119 71.3317 79.1054 71.3317 76.8048C71.3317 76.6017 71.5006 76.3988 71.737 76.3988H73.4936C73.6961 76.3988 73.865 76.5341 73.865 76.7372C74.1354 78.5302 74.9122 79.4098 78.4927 79.4098C81.33 79.4098 82.5464 78.767 82.5464 77.2445C82.5464 76.3649 82.2083 75.7223 77.7834 75.2824C74.1015 74.91 71.8046 74.0983 71.8046 71.1549C71.8046 68.4144 74.1018 66.7903 77.9523 66.7903C82.2758 66.7903 84.404 68.2791 84.6744 71.5267C84.6744 71.6285 84.6405 71.7298 84.573 71.8314C84.5052 71.899 84.4041 71.9666 84.3026 71.9666H82.5461C82.3772 71.9666 82.2083 71.8314 82.1747 71.6622C81.7693 69.8016 80.7221 69.1925 77.9523 69.1925C74.8447 69.1925 74.4729 70.2753 74.4729 71.087C74.4729 72.0682 74.9122 72.3726 79.1006 72.9139C83.2555 73.4554 85.2148 74.2335 85.2148 77.1429C85.1809 80.1203 82.749 81.8119 78.4588 81.8119Z" fill="#539E43"/>
<path d="M32.4864 31.5374C32.4864 30.9285 32.1485 30.353 31.6081 30.0486L17.2861 21.7937C17.0493 21.6582 16.7793 21.5905 16.5092 21.5566H16.3739C16.1039 21.5566 15.8335 21.6582 15.5971 21.7937L1.27498 30.0486C0.734293 30.353 0.396729 30.9282 0.396729 31.5374L0.430631 53.7311C0.430631 54.0356 0.599559 54.34 0.869611 54.4755C1.13995 54.6447 1.47752 54.6447 1.71425 54.4755L10.2264 49.6037C10.7668 49.2992 11.1047 48.724 11.1047 48.1152V37.7286C11.1047 37.1197 11.4422 36.5445 11.9829 36.2401L15.5971 34.1424C15.8674 33.9732 16.1714 33.9053 16.4753 33.9053C16.7793 33.9053 17.0832 33.9732 17.32 34.1424L20.9341 36.2401C21.4748 36.5445 21.8123 37.1194 21.8123 37.7286V48.1152C21.8123 48.724 22.1502 49.2992 22.6906 49.6037L31.2028 54.4755C31.4731 54.6447 31.8107 54.6447 32.081 54.4755C32.3514 54.34 32.5203 54.0356 32.5203 53.7311L32.4864 31.5374ZM101.327 0.986904C101.057 0.851371 100.719 0.851371 100.482 0.986904C100.212 1.1561 100.043 1.42658 100.043 1.73102V23.7222C100.043 23.925 99.9423 24.1279 99.7395 24.2634C99.537 24.3647 99.3341 24.3647 99.1316 24.2634L95.5511 22.1997C95.2886 22.05 94.9917 21.9713 94.6896 21.9713C94.3875 21.9713 94.0907 22.05 93.8282 22.1997L79.5061 30.4886C78.9657 30.793 78.6278 31.3682 78.6278 31.9771V48.5209C78.6278 49.1297 78.9657 49.7052 79.5061 50.0097L93.8282 58.2986C94.0907 58.4483 94.3875 58.527 94.6896 58.527C94.9917 58.527 95.2886 58.4483 95.5511 58.2986L109.873 50.0097C110.414 49.7052 110.751 49.13 110.751 48.5209V7.27967C110.751 6.63684 110.414 6.06192 109.873 5.75719L101.327 0.986904ZM100.01 43.0741C100.01 43.2433 99.9423 43.3785 99.807 43.4462L94.9092 46.288C94.8408 46.3214 94.7657 46.3387 94.6896 46.3387C94.6135 46.3387 94.5384 46.3214 94.47 46.288L89.5722 43.4462C89.4369 43.3785 89.3694 43.2093 89.3694 43.0741V37.3902C89.3694 37.221 89.4369 37.0858 89.5722 37.0181L94.47 34.1761C94.5384 34.1426 94.6135 34.1253 94.6896 34.1253C94.7657 34.1253 94.8408 34.1426 94.9092 34.1761L99.807 37.0181C99.9423 37.0855 100.01 37.255 100.01 37.3902V43.0741ZM148.989 37.255C149.529 36.9505 149.833 36.3753 149.833 35.7662V31.7403C149.833 31.1314 149.495 30.5562 148.989 30.2518L134.768 21.9968C134.505 21.8472 134.209 21.7685 133.907 21.7685C133.605 21.7685 133.308 21.8472 133.045 21.9968L118.723 30.2854C118.182 30.5899 117.845 31.1651 117.845 31.7742V48.318C117.845 48.9269 118.182 49.5021 118.723 49.8065L132.944 57.9262C133.485 58.2306 134.126 58.2306 134.633 57.9262L143.246 53.1225C143.516 52.987 143.685 52.6826 143.685 52.3781C143.685 52.0737 143.516 51.7693 143.246 51.6337L128.857 43.3449C128.586 43.176 128.418 42.9052 128.418 42.6008V37.4245C128.418 37.12 128.586 36.8156 128.857 36.68L133.349 34.1087C133.481 34.0258 133.633 33.9819 133.788 33.9819C133.944 33.9819 134.096 34.0258 134.227 34.1087L138.72 36.68C138.99 36.8492 139.159 37.1197 139.159 37.4245V41.4843C139.159 41.7887 139.328 42.0932 139.598 42.2284C139.868 42.3976 140.206 42.3976 140.476 42.2284L148.989 37.255Z" fill="white"/>
<path d="M133.687 36.4769C133.737 36.4439 133.796 36.4263 133.856 36.4263C133.916 36.4263 133.975 36.4439 134.025 36.4769L136.761 38.067C136.862 38.1344 136.93 38.2359 136.93 38.3715V41.5517C136.93 41.6869 136.862 41.7885 136.761 41.8561L134.025 43.4462C133.975 43.4792 133.916 43.4969 133.856 43.4969C133.796 43.4969 133.737 43.4792 133.687 43.4462L130.951 41.8561C130.849 41.7885 130.782 41.6869 130.782 41.5517V38.3715C130.782 38.2359 130.849 38.1344 130.951 38.067L133.687 36.4769Z" fill="#539E43"/>
<path d="M56.4354 22.0645C56.1729 21.9149 55.8761 21.8362 55.5741 21.8362C55.2721 21.8362 54.9752 21.9149 54.7128 22.0645L40.4921 30.2852C39.9514 30.5896 39.6475 31.1648 39.6475 31.7737V48.2502C39.6475 48.859 39.9853 49.4342 40.4921 49.7387L54.7128 57.9599C54.9752 58.1096 55.2721 58.1883 55.5741 58.1883C55.8761 58.1883 56.1729 58.1096 56.4354 57.9599L70.6563 49.7387C71.1967 49.4342 71.501 48.859 71.501 48.2502V31.774C71.501 31.1651 71.1628 30.5899 70.6563 30.2855L56.4354 22.0645Z" fill="url(#paint0_linear_82_64)"/>
</g>
<defs>
<linearGradient id="paint0_linear_82_64" x1="2211.68" y1="657.525" x2="649.431" y2="3108.38" gradientUnits="userSpaceOnUse">
<stop stop-color="#41873F"/>
<stop offset="0.3288" stop-color="#418B3D"/>
<stop offset="0.6352" stop-color="#419637"/>
<stop offset="0.9319" stop-color="#3FA92D"/>
<stop offset="1" stop-color="#3FAE2A"/>
</linearGradient>
<clipPath id="clip0_82_64">
<rect width="149.659" height="91.9164" fill="white" transform="translate(0.319336 0.885254)"/>
</clipPath>
</defs>
</svg>
