<svg width="125" height="50" viewBox="0 0 125 50" fill="none" xmlns="http://www.w3.org/2000/svg">
<g clip-path="url(#clip0_168_217)">
<path d="M0.902588 0.977173L124.925 0.977173V42.3179H62.9137V49.2081H35.3532V42.3179H0.902588L0.902588 0.977173ZM7.79271 35.4278H21.573V14.7574H28.4631V35.4278H35.3532V7.8673L7.79271 7.8673L7.79271 35.4278ZM42.2433 7.8673V42.3179H56.0236V35.4278H69.8039V7.8673L42.2433 7.8673ZM56.0236 14.7574H62.9137V28.5377H56.0236V14.7574ZM76.694 7.8673V35.4278H90.4742V14.7574L97.3644 14.7574V35.4278H104.254V14.7574H111.145V35.4278H118.035V7.8673L76.694 7.8673Z" fill="#CB3837"/>
<path d="M7.79272 35.4278H21.573V14.7574H28.4631V35.4278H35.3532V7.86731L7.79272 7.86731L7.79272 35.4278Z" fill="white"/>
<path d="M42.2434 7.86731V42.3179H56.0237V35.4278H69.8039V7.86731L42.2434 7.86731ZM62.9138 28.5377H56.0237V14.7574H62.9138V28.5377Z" fill="white"/>
<path d="M76.6941 7.86731V35.4278H90.4743V14.7574H97.3645V35.4278H104.255V14.7574H111.145V35.4278H118.035V7.86731L76.6941 7.86731Z" fill="white"/>
</g>
<defs>
<clipPath id="clip0_168_217">
<rect width="124.022" height="48.2309" fill="white" transform="translate(0.902588 0.977173)"/>
</clipPath>
</defs>
</svg>
