<svg width="101" height="115" viewBox="0 0 101 115" fill="none" xmlns="http://www.w3.org/2000/svg">
<path d="M101 57.5102C101 50.8245 92.6211 44.4884 79.7748 40.5593C82.7393 27.4758 81.4217 17.0666 75.6162 13.734C74.278 12.9523 72.7134 12.582 71.0047 12.582V17.1694C71.9517 17.1694 72.7134 17.3546 73.3516 17.7043C76.1515 19.3089 77.3661 25.4186 76.4191 33.2769C76.1926 35.2107 75.8221 37.2473 75.3691 39.325C71.3341 38.3375 66.9285 37.5764 62.2964 37.0827C59.5171 33.2769 56.6349 29.8209 53.7322 26.7969C60.4435 20.5637 66.7432 17.1489 71.0253 17.1489V12.5614C65.3638 12.5614 57.9525 16.5934 50.4588 23.5878C42.9651 16.6346 35.5538 12.6437 29.8924 12.6437V17.2311C34.1539 17.2311 40.4741 20.6254 47.1855 26.8175C44.3033 29.8415 41.4211 33.2769 38.683 37.0827C34.0304 37.5764 29.6247 38.3375 25.5897 39.3456C25.1162 37.2884 24.7662 35.293 24.5192 33.3798C23.5516 25.5215 24.7456 19.4117 27.5249 17.7866C28.1425 17.4163 28.9454 17.2517 29.8924 17.2517V12.6643C28.1631 12.6643 26.5984 13.0345 25.2397 13.8163C19.4547 17.1489 18.1578 27.5375 21.1429 40.5798C8.33775 44.5296 0 50.845 0 57.5102C0 64.196 8.37892 70.532 21.2252 74.4612C18.2607 87.5447 19.5783 97.9539 25.3838 101.286C26.722 102.068 28.2866 102.438 30.0159 102.438C35.6773 102.438 43.0887 98.4065 50.5824 91.4121C58.076 98.3653 65.4874 102.356 71.1488 102.356C72.8781 102.356 74.4427 101.986 75.8015 101.204C81.5864 97.8716 82.8834 87.483 79.8983 74.4406C92.6623 70.5114 101 64.1754 101 57.5102ZM74.1957 43.789C73.434 46.4427 72.487 49.1787 71.4164 51.9148C70.5724 50.269 69.6871 48.6233 68.7195 46.9776C67.7725 45.3319 66.7638 43.7273 65.755 42.1639C68.6784 42.5959 71.4988 43.1307 74.1957 43.789ZM64.7668 65.6977C63.161 68.4749 61.5141 71.108 59.8053 73.556C56.7379 73.8235 53.6292 73.9675 50.5 73.9675C47.3914 73.9675 44.2827 73.8235 41.2358 73.5766C39.5271 71.1286 37.8596 68.516 36.2538 65.7594C34.6892 63.0645 33.2687 60.3285 31.9717 57.5719C33.2481 54.8154 34.6892 52.0588 36.2332 49.3639C37.839 46.5867 39.4859 43.9536 41.1947 41.5056C44.2621 41.2381 47.3708 41.0941 50.5 41.0941C53.6086 41.0941 56.7173 41.2381 59.7642 41.485C61.4729 43.933 63.1404 46.5456 64.7462 49.3022C66.3108 51.9971 67.7314 54.7331 69.0283 57.4897C67.7314 60.2462 66.3108 63.0028 64.7668 65.6977ZM71.4164 63.0234C72.5281 65.78 73.4751 68.5366 74.2574 71.2109C71.5605 71.8692 68.7195 72.4246 65.7756 72.8566C66.7843 71.2726 67.7931 69.6474 68.7401 67.9811C69.6871 66.3354 70.5724 64.6691 71.4164 63.0234ZM50.5412 84.9732C48.6266 82.9984 46.712 80.7972 44.818 78.3903C46.6708 78.4726 48.5648 78.5343 50.4794 78.5343C52.4146 78.5343 54.3292 78.4932 56.2026 78.3903C54.3498 80.7972 52.4352 82.9984 50.5412 84.9732ZM35.2244 72.8566C32.3011 72.4246 29.4806 71.8897 26.7837 71.2314C27.5455 68.5777 28.4925 65.8417 29.563 63.1057C30.4071 64.7514 31.2923 66.3971 32.2599 68.0429C33.2275 69.6886 34.2157 71.2932 35.2244 72.8566ZM50.4382 30.0472C52.3528 32.0221 54.2674 34.2232 56.1614 36.6301C54.3086 36.5478 52.4146 36.4861 50.5 36.4861C48.5648 36.4861 46.6502 36.5273 44.7768 36.6301C46.6296 34.2232 48.5442 32.0221 50.4382 30.0472ZM35.2038 42.1639C34.1951 43.7479 33.1863 45.373 32.2393 47.0393C31.2923 48.685 30.4071 50.3308 29.563 51.9765C28.4513 49.2199 27.5043 46.4633 26.722 43.789C29.4189 43.1513 32.2599 42.5959 35.2038 42.1639ZM16.5726 67.9194C9.28476 64.8131 4.57032 60.74 4.57032 57.5102C4.57032 54.2805 9.28476 50.1868 16.5726 47.101C18.3431 46.3399 20.2782 45.661 22.2752 45.0233C23.4486 49.0553 24.9927 53.2519 26.9073 57.5514C25.0133 61.8303 23.4898 66.0063 22.3369 70.0177C20.2988 69.38 18.3636 68.6806 16.5726 67.9194ZM27.6484 97.3162C24.8486 95.7116 23.6339 89.6018 24.5809 81.7435C24.8074 79.8098 25.1779 77.7732 25.6309 75.6955C29.6659 76.6829 34.0715 77.4441 38.7036 77.9378C41.4829 81.7435 44.3651 85.1995 47.2678 88.2235C40.5565 94.4567 34.2568 97.8716 29.9747 97.8716C29.0483 97.851 28.266 97.6659 27.6484 97.3162ZM76.4808 81.6406C77.4484 89.499 76.2544 95.6087 73.4751 97.2339C72.8575 97.6042 72.0546 97.7687 71.1076 97.7687C66.8461 97.7687 60.5259 94.3744 53.8145 88.1824C56.6967 85.1584 59.5789 81.7229 62.317 77.9172C66.9696 77.4235 71.3753 76.6623 75.4103 75.6543C75.8838 77.7321 76.2544 79.7275 76.4808 81.6406ZM84.4069 67.9194C82.6364 68.6806 80.7012 69.3594 78.7042 69.9972C77.5308 65.9651 75.9868 61.7685 74.0722 57.4691C75.9662 53.1902 77.4896 49.0142 78.6425 45.0027C80.6806 45.6404 82.6158 46.3399 84.4274 47.101C91.7152 50.2073 96.4297 54.2805 96.4297 57.5102C96.4091 60.74 91.6947 64.8337 84.4069 67.9194Z" fill="#61DAFB"/>
<path d="M50.4793 66.9114C55.6754 66.9114 59.8876 62.7023 59.8876 57.5102C59.8876 52.3181 55.6754 48.109 50.4793 48.109C45.2833 48.109 41.071 52.3181 41.071 57.5102C41.071 62.7023 45.2833 66.9114 50.4793 66.9114Z" fill="#61DAFB"/>
</svg>
