<svg width="132" height="119" viewBox="0 0 132 119" fill="none" xmlns="http://www.w3.org/2000/svg">
<g clip-path="url(#clip0_82_46)">
<path d="M97.7579 81.1648C94.3735 79.5711 91.0646 78.9827 88.0383 79.0146C87.9865 76.7964 87.8269 74.8035 88.233 73.5663C88.71 72.1317 88.8979 71.2053 89.8776 69.688C90.8574 68.1702 92.896 66.3274 92.9858 66.1394C93.0476 65.9611 93.2542 65.0439 91.3211 64.0972C89.3881 63.1505 87.5211 62.7433 87.09 63.1607C86.6589 63.5782 85.7249 64.5635 84.905 65.6494C83.7213 67.2542 77.1853 71.82 73.5959 74.1456C73.5467 72.552 73.5199 71.1539 73.8378 70.1972C74.3148 68.763 74.5025 67.8365 75.4824 66.3193C76.4624 64.8016 78.5009 62.9589 78.5907 62.7709C78.6527 62.5928 78.8593 61.6756 76.9262 60.7288C74.9928 59.782 73.1262 59.3749 72.6951 59.7924C72.264 60.2098 71.4818 61.3138 70.5101 62.281C69.557 63.2572 59.8491 71.4563 57.3211 73.5964C56.0341 74.6901 54.9576 75.538 54.2021 76.1006C53.4469 76.6633 54.1563 76.148 54.0827 76.2052C53.4379 76.6821 53.0787 76.9492 53.0787 76.9492L53.0696 76.9682C52.5811 77.312 52.0828 77.6278 51.9506 77.5646C51.8563 77.5196 52.2695 76.17 53.4163 74.594C55.8475 71.2992 60.248 66.4521 60.3281 66.2364C60.373 66.1424 61.1695 65.299 59.9977 64.1159C58.8637 62.9507 57.9694 63.5624 57.8561 63.5083C57.743 63.4542 57.505 63.7099 57.505 63.7099C57.505 63.7099 62.077 58.0674 57.6269 55.9412C54.8361 54.6077 49.5433 55.7962 46.3185 57.6495C44.7974 57.7308 41.5683 57.8963 38.1433 58.0841C36.8368 58.1525 35.4745 58.2405 34.1958 58.2991L34.0965 57.9741C31.443 49.664 23.4079 40.8375 27.5052 33.3287C28.9943 30.5999 33.5047 23.6808 55.807 23.3465C74.0745 23.0699 84.9365 30.7304 84.8541 36.1862C84.7231 43.974 69.807 51.4395 53.6406 45.8162C47.4807 43.6811 45.4847 39.9567 45.1159 38.7415C44.7272 37.4706 44.6321 37.3789 44.2495 37.404C43.6335 37.4329 43.558 38.3665 43.522 38.9266C43.4087 40.3271 44.2884 43.3334 46.9911 45.9177C49.3604 48.1812 55.9819 51.9684 65.8056 52.737C76.8174 53.5884 88.8375 47.0943 90.6856 37.7488C92.5678 28.2349 79.7924 18.7135 64.2064 17.0619C54.9203 16.0884 44.22 16.3786 35.2777 19.1944C24.6543 22.523 20.6291 27.9421 19.9338 30.6576C17.4195 40.3314 26.8999 51.9495 29.7637 58.5592C29.4558 58.5734 29.1667 58.5969 28.9053 58.6108C25.8792 58.6424 14.2189 59.0514 9.41976 63.0846C3.99553 67.6506 5.04729 73.3022 6.81435 74.8392C12.2771 79.5967 20.226 79.5388 26.1844 76.0362C32.1238 72.5245 34.9156 65.6155 34.7768 61.7857L34.7739 61.6457L37.2362 61.4369C38.8312 61.2985 40.3802 61.2074 41.7334 61.1379C40.3488 62.4851 38.9898 64.214 37.4164 66.9256C35.5716 70.1081 34.8815 75.0425 35.8645 77.5902C36.3063 78.7016 37.2401 79.171 37.8246 79.4504C39.8988 80.4414 41.6591 79.1811 43.6751 77.6279C46.1519 75.7404 48.6665 73.3862 48.6665 73.3862C48.6665 73.3862 43.5069 80.5491 47.3725 82.3961C48.7867 83.0718 51.0722 81.9242 52.1624 81.2906L52.1534 81.3094C52.1534 81.3094 52.2181 81.271 52.3564 81.1755C52.4912 81.0967 52.6236 81.0137 52.7532 80.9266L52.7712 80.889C53.8039 80.1819 56.1361 78.5486 59.7912 75.7464C64.5048 72.1339 69.6994 67.2735 69.6994 67.2735C69.6994 67.2735 69.2251 68.8478 68.7731 71.5873C68.5051 73.2143 68.6648 75.2068 68.635 77.0627C67.6921 77.5819 67.137 77.8711 67.137 77.8711L67.1469 77.8989C66.4071 78.2843 65.5923 78.6803 64.7592 79.067C61.7401 80.4414 58.1911 81.9553 57.5301 82.563C56.7498 83.2751 56.5108 83.9691 56.9569 84.829C57.2864 85.4482 58.1557 85.9557 59.1532 86.3402C60.942 87.0561 62.3553 87.2006 63.0846 87.2255C64.1891 87.3376 65.5064 87.3436 66.9028 87.0873C69.453 86.5974 71.5463 85.1732 72.6906 82.4875C73.3256 81.013 73.5368 79.3591 73.5989 77.7264C73.8854 77.5631 74.1722 77.3997 74.4673 77.2177C79.5215 74.2988 84.1033 70.6235 84.1033 70.6235C84.1033 70.6235 83.629 72.1979 83.177 74.9373C82.9513 76.3303 83.0303 78.0076 83.0427 79.6298C79.1651 80.5709 76.154 82.3646 74.7243 83.8057C72.0849 86.4698 72.2607 88.3317 73.7395 89.4539C74.4029 89.9555 75.6207 90.1218 76.5742 90.1618C77.7074 90.3107 79.1559 90.333 80.6359 90.0475C83.1862 89.5575 85.9216 88.4862 87.0757 85.8283C87.594 84.5982 87.8393 83.2608 87.9445 81.9257C90.7874 82.0834 94.1303 82.988 97.8093 85.323C105.733 90.3099 104.896 96.3285 103.534 98.356C102.171 100.384 99.8427 100.749 99.0783 100.845C98.3231 100.923 98.0716 100.965 98.0025 101.255C97.8892 101.686 98.1623 101.793 98.7073 101.961C99.4589 102.181 103.973 102.283 106.046 98.333C108.742 93.271 106.515 85.2801 97.7579 81.1648ZM22.6504 71.9925C18.4325 73.6945 13.9813 72.9762 12.7889 71.2058C11.4916 69.316 14.3177 65.1942 19.2668 63.6106C22.2751 62.6467 25.8338 62.1305 28.1363 61.8684C28.649 61.8132 29.423 61.7445 30.3462 61.6544C30.4952 61.6334 30.5887 61.6317 30.5887 61.6317C30.7566 61.6196 30.9524 61.5977 31.1481 61.5757C30.22 66.7661 27.0911 70.2122 22.6504 71.9925ZM49.4868 67.9368C47.4024 69.827 42.4828 74.888 41.4188 73.964C40.4974 73.1774 42.039 68.3033 45.684 64.5035C47.5252 62.5892 50.4213 60.6483 51.8671 60.0459C54.2031 59.084 56.1317 59.3128 56.2144 60.2067C56.2735 61.3434 50.7908 66.7588 49.4868 67.9368ZM62.4043 83.8986C61.8906 83.9074 61.4417 83.8774 61.3258 83.6837C61.2297 83.5455 61.666 83.4075 61.666 83.4075C61.666 83.4075 64.8279 82.1707 66.1515 81.5332C66.9103 81.1571 67.8083 80.7319 68.789 80.2305L68.6813 80.4561C67.3882 83.1629 63.9237 83.7241 62.4043 83.8986ZM76.7032 87.1288C76.5092 86.759 76.8795 86.0816 78.9394 84.3875C79.7487 83.7121 81.3453 82.697 83.566 82.0726C83.4851 82.7266 83.3381 83.3257 83.0764 83.8244C81.4411 87.1991 78.4257 87.3053 76.7032 87.1288Z" fill="#CF649A"/>
</g>
<defs>
<clipPath id="clip0_82_46">
<rect width="107" height="80" fill="white" transform="translate(34.4895) rotate(25.5386)"/>
</clipPath>
</defs>
</svg>
