<svg width="100" height="100" viewBox="0 0 100 100" fill="none" xmlns="http://www.w3.org/2000/svg">
<g clip-path="url(#clip0_176_222)">
<path d="M90.2127 0.109375H9.95836C4.57932 0.109375 0.21875 4.46995 0.21875 9.84898V90.1033C0.21875 95.4824 4.57932 99.8429 9.95836 99.8429H90.2127C95.5918 99.8429 99.9523 95.4824 99.9523 90.1033V9.84898C99.9523 4.46995 95.5918 0.109375 90.2127 0.109375Z" fill="#3178C6"/>
<path d="M90.2127 0.109375H9.95836C4.57932 0.109375 0.21875 4.46995 0.21875 9.84898V90.1033C0.21875 95.4824 4.57932 99.8429 9.95836 99.8429H90.2127C95.5918 99.8429 99.9523 95.4824 99.9523 90.1033V9.84898C99.9523 4.46995 95.5918 0.109375 90.2127 0.109375Z" fill="#3178C6"/>
<path fill-rule="evenodd" clip-rule="evenodd" d="M61.9559 79.4724V89.2239C63.5411 90.0366 65.4159 90.6459 67.5805 91.0522C69.745 91.4586 72.0262 91.6617 74.4245 91.6617C76.7618 91.6617 78.982 91.4383 81.0856 90.9913C83.1892 90.5444 85.0337 89.8079 86.6189 88.7819C88.2041 87.7562 89.4591 86.4152 90.3838 84.7595C91.3085 83.1038 91.7709 81.0571 91.7709 78.6192C91.7709 76.8517 91.5068 75.3027 90.9783 73.9721C90.4499 72.6415 89.6878 71.4581 88.6919 70.422C87.6961 69.3859 86.502 68.4564 85.1098 67.6336C83.7176 66.8108 82.1476 66.0337 80.3997 65.3025C79.1194 64.7742 77.9711 64.2613 76.9548 63.7636C75.9386 63.2657 75.0749 62.7579 74.3635 62.24C73.6521 61.7218 73.1034 61.1733 72.7173 60.5944C72.3313 60.0152 72.138 59.3601 72.138 58.6287C72.138 57.9584 72.3108 57.354 72.6564 56.8156C73.0019 56.2772 73.4897 55.8151 74.1197 55.429C74.7498 55.0432 75.522 54.7434 76.4365 54.5301C77.3513 54.3168 78.3673 54.2102 79.4852 54.2102C80.2981 54.2102 81.1567 54.2712 82.0611 54.3929C82.9656 54.5149 83.875 54.7029 84.7898 54.9567C85.7043 55.2107 86.5934 55.5307 87.4573 55.9166C88.321 56.3027 89.1186 56.7495 89.8503 57.2576V48.146C88.3668 47.5772 86.7459 47.1556 84.9879 46.8814C83.2299 46.6071 81.2126 46.47 78.9365 46.47C76.6194 46.47 74.4245 46.7189 72.3515 47.2166C70.2785 47.7143 68.4545 48.4913 66.8792 49.5477C65.3041 50.6042 64.0594 51.9501 63.1449 53.5855C62.2303 55.2208 61.7729 57.1761 61.7729 59.4515C61.7729 62.3566 62.6113 64.8352 64.2881 66.8871C65.9647 68.9389 68.5102 70.6758 71.9247 72.098C73.2661 72.6465 74.5161 73.1847 75.6745 73.713C76.8329 74.2413 77.8339 74.7898 78.6772 75.3586C79.5207 75.9274 80.1863 76.547 80.6742 77.2175C81.162 77.8878 81.4058 78.6496 81.4058 79.503C81.4058 80.1328 81.2533 80.7168 80.9485 81.2552C80.6436 81.7936 80.1812 82.2607 79.5614 82.6569C78.9415 83.0531 78.1692 83.3628 77.2445 83.5863C76.3196 83.8099 75.2376 83.9215 73.9977 83.9215C71.884 83.9215 69.7908 83.5508 67.7176 82.8092C65.6446 82.0678 63.724 80.9556 61.9559 79.4724ZM45.5623 55.4464H58.0719V47.4439H23.2041V55.4464H35.6525V91.0774H45.5623V55.4464Z" fill="white"/>
</g>
<defs>
<clipPath id="clip0_176_222">
<rect width="99.7336" height="99.7336" fill="white" transform="translate(0.21875 0.109375)"/>
</clipPath>
</defs>
</svg>
