<svg width="78" height="83" viewBox="0 0 78 83" fill="none" xmlns="http://www.w3.org/2000/svg">
<g clip-path="url(#clip0_168_201)">
<path d="M28.4186 9.3447L62.1185 16.0608L72.6833 48.1899L49.5459 73.5955L15.8461 66.8794L5.28121 34.7503L28.4186 9.3447Z" fill="white"/>
<path d="M67.2447 48.7506L49.0044 68.7815L45.7619 58.9205L57.1979 46.6556L67.2447 48.7506ZM68.3235 46.8592L59.6164 20.3797L52.9774 27.8068L58.5746 44.8289L68.3235 46.8592ZM20.4678 64.132L47.0364 69.4286L43.7939 59.5676L27.3033 56.4857L20.4678 64.132ZM18.4771 63.2499L9.76994 36.7704L19.5212 38.8081L25.1185 55.8301L18.4771 63.2499ZM10.1674 34.7372L28.8743 14.1951L32.0083 23.726L19.946 36.6602L19.8502 36.7648L10.1674 34.7372ZM58.0898 18.9791L30.8423 13.548L33.9763 23.0788L51.3583 26.3229L51.4975 26.3503L58.0898 18.9791Z" fill="#8ED6FB"/>
<path d="M43.0557 57.3224L26.7898 54.2804L21.8609 39.2908L38.2498 42.7069L43.0557 57.3224ZM45.0237 56.6752L56.3124 44.5808L51.381 29.5838L40.2178 42.0598L45.0237 56.6752ZM22.2241 37.2525L33.5545 25.1119L49.879 28.1589L38.6741 40.6811L22.2241 37.2525Z" fill="#1C78C0"/>
</g>
<defs>
<clipPath id="clip0_168_201">
<rect width="59.8312" height="67.6353" fill="white" transform="translate(0 18.6895) rotate(-18.2022)"/>
</clipPath>
</defs>
</svg>
